<?xml version="1.0" encoding="UTF-8"?>
<svg version="1.1" xmlns="http://www.w3.org/2000/svg" width="1024" height="1024">
<path d="M0 0 C337.92 0 675.84 0 1024 0 C1024 337.92 1024 675.84 1024 1024 C686.08 1024 348.16 1024 0 1024 C0 686.08 0 348.16 0 0 Z " fill="#6F389A" transform="translate(0,0)"/>
<path d="M0 0 C3.60287442 0.00041277 7.20571807 -0.01067452 10.80857766 -0.02011514 C17.84866714 -0.03662972 24.88872311 -0.0422204 31.92883036 -0.04333989 C37.66239377 -0.04429525 43.39594628 -0.04842968 49.12950623 -0.05474114 C65.44412949 -0.07233015 81.7587266 -0.08158408 98.07335941 -0.0800802 C98.9503311 -0.08000028 99.82730279 -0.07992037 100.73084939 -0.07983804 C102.0479445 -0.0797154 102.0479445 -0.0797154 103.3916476 -0.07959028 C117.59556079 -0.0787788 131.79936758 -0.09788778 146.00325004 -0.12611477 C160.64546514 -0.15497924 175.2876286 -0.16864755 189.92987281 -0.16692722 C198.12700837 -0.16626781 206.32403248 -0.17156009 214.52114213 -0.19328332 C221.50508804 -0.21167515 228.48887205 -0.21569765 235.47283194 -0.20226447 C239.02264346 -0.19582306 242.57214611 -0.19528781 246.12192643 -0.21297097 C266.93663731 -0.29743921 288.50103093 0.01621617 308.2603904 7.29076743 C309.86033075 7.79851173 311.46154198 8.30230789 313.0650779 8.79857993 C337.02957396 16.37188769 359.3702987 27.4825659 378.2603904 44.29076743 C379.53076149 45.39871665 379.53076149 45.39871665 380.82679665 46.52904868 C383.33831526 48.74915444 385.80760433 51.00603522 388.2603904 53.29076743 C389.36833962 54.31750571 389.36833962 54.31750571 390.49867165 55.36498618 C408.7174213 72.87181311 422.20884611 95.52498428 430.50721657 119.25365806 C431.35453863 121.54541016 432.31166615 123.77912861 433.26429665 126.02904868 C435.5147213 131.61680521 436.77418142 137.27080463 437.9478904 143.16576743 C438.15994118 144.16479087 438.37199196 145.16381431 438.59046853 146.19311118 C447.01074603 187.36481504 439.07868385 230.63801311 419.2603904 267.29076743 C418.69578103 268.34779868 418.13117165 269.40482993 417.5494529 270.49389243 C411.00372643 282.23317653 402.49989726 292.5680534 393.2603904 302.29076743 C392.78230935 302.79607993 392.30422829 303.30139243 391.81165993 303.82201743 C364.52909882 332.47344166 328.24775341 350.85497528 289.2603904 357.29076743 C288.3798065 357.45505115 287.49922261 357.61933486 286.59195435 357.78859687 C273.52150496 359.90911675 260.35721343 359.57655355 247.15208399 359.55221677 C243.47917914 359.54764931 239.80629259 359.55469716 236.1333915 359.56017661 C228.95681062 359.56902742 221.78027179 359.56716779 214.60368933 359.56135133 C208.76513559 359.55681706 202.92659356 359.55622953 197.08803856 359.55839896 C195.83704784 359.55885866 195.83704784 359.55885866 194.56078457 359.55932765 C192.86601401 359.55996716 191.17124345 359.56061559 189.4764729 359.56127283 C173.61775945 359.56696368 157.7590692 359.5604382 141.90035956 359.5496721 C128.32504572 359.54074102 114.74976611 359.5422874 101.1744529 359.55150962 C85.37190461 359.56224001 69.56937662 359.56641102 53.7668252 359.56028509 C52.07800806 359.55964806 50.38919092 359.55901932 48.70037377 359.55839896 C47.86966528 359.55809041 47.03895679 359.55778186 46.18307532 359.55746396 C40.3599409 359.55574506 34.53681947 359.55863472 28.71368706 359.56335807 C21.60503139 359.56899792 14.49641981 359.56738589 7.38776912 359.55679658 C3.76840794 359.55158079 0.14911998 359.54941216 -3.47024047 359.55609488 C-20.79940439 359.58544763 -37.84342913 359.49386234 -54.8021096 355.47826743 C-55.54050071 355.30795005 -56.27889183 355.13763267 -57.03965843 354.96215415 C-104.88257909 343.608211 -144.30974921 315.16691215 -170.22105491 273.36669517 C-194.61480205 232.74843099 -201.14800574 181.86826428 -189.83189476 136.06615806 C-182.48111168 107.67329801 -169.60440054 83.08391424 -149.65757835 61.45482993 C-147.60836728 59.24205142 -147.60836728 59.24205142 -145.7396096 56.29076743 C-145.0796096 56.29076743 -144.4196096 56.29076743 -143.7396096 56.29076743 C-143.7396096 55.63076743 -143.7396096 54.97076743 -143.7396096 54.29076743 C-143.0796096 54.29076743 -142.4196096 54.29076743 -141.7396096 54.29076743 C-141.53722679 53.74678306 -141.33484397 53.20279868 -141.12632835 52.64232993 C-139.17874069 49.33966015 -136.44980285 47.1080639 -133.5521096 44.66576743 C-132.93062034 44.1394271 -132.30913108 43.61308677 -131.66880882 43.07079673 C-117.4337741 31.237991 -100.85776752 21.32562685 -83.7396096 14.29076743 C-82.63359397 13.82154868 -81.52757835 13.35232993 -80.3880471 12.86889243 C-72.1907926 9.51754674 -63.8384855 7.14025176 -55.2396096 5.04076743 C-54.24429222 4.79463706 -53.24897483 4.54850669 -52.22349632 4.29491782 C-34.82800609 0.21437246 -17.78366239 -0.01274386 0 0 Z " fill="#272728" transform="translate(383.73960959911346,337.70923256874084)"/>
<path d="M0 0 C1.22109467 -0.00029205 2.44218933 -0.00058411 3.70028687 -0.00088501 C7.00320098 0.00025794 10.30593877 0.01018946 13.60881829 0.02426291 C17.0774356 0.03688653 20.54605748 0.03794982 24.01469421 0.04031372 C30.56270617 0.04649469 37.11065021 0.06285898 43.65863246 0.0830127 C51.12190203 0.10547793 58.58517509 0.11639166 66.04847014 0.12640357 C81.38220608 0.1472288 96.71587451 0.1823379 112.04956055 0.22705078 C111.11141685 1.34957718 110.16921616 2.46871371 109.2253418 3.58642578 C108.70109619 4.21000977 108.17685059 4.83359375 107.63671875 5.47607422 C106.04956055 7.22705078 106.04956055 7.22705078 103.23706055 9.47705078 C98.94199509 12.92645568 95.67096414 17.28568173 92.30444336 21.61425781 C91.46328321 22.69532861 90.61619019 23.77180753 89.76342773 24.84375 C77.62914417 40.16249477 67.88993022 57.54523737 62.04956055 76.22705078 C61.82719727 76.92185547 61.60483398 77.61666016 61.37573242 78.33251953 C51.44331521 109.85591776 50.84254355 143.5220197 60.43237305 175.16845703 C60.98571479 177.01409689 61.50432378 178.87006635 62.01831055 180.72705078 C70.02737505 208.89686385 87.95993322 233.83228521 108.8347168 253.94970703 C110.04956055 255.22705078 110.04956055 255.22705078 110.04956055 256.22705078 C94.3059795 256.29747176 78.56244173 256.35019963 62.8187418 256.3824873 C55.50687421 256.39788476 48.19510511 256.41883601 40.88330078 256.45336914 C34.50223925 256.48349179 28.12124911 256.50267736 21.74011844 256.50931627 C18.36863551 256.51319036 14.99751681 256.52377395 11.62607002 256.54424095 C-2.56967073 256.62692504 -16.08237603 256.49150814 -29.95043945 253.22705078 C-30.87848389 253.02357025 -31.80652832 252.82008972 -32.76269531 252.61044312 C-34.84653769 252.14479934 -36.89503445 251.61705205 -38.95043945 251.03955078 C-39.68335205 250.83378418 -40.41626465 250.62801758 -41.17138672 250.41601562 C-57.92739598 245.44529916 -72.65092477 236.42891843 -85.95043945 225.22705078 C-86.71227539 224.60056641 -87.47411133 223.97408203 -88.2590332 223.32861328 C-110.36955692 204.55191203 -123.86264315 175.78732862 -126.95043945 147.22705078 C-127.26418168 141.9640249 -127.28068698 136.69782189 -127.26611328 131.42700195 C-127.2629663 129.05974618 -127.28646281 126.69376155 -127.31176758 124.32666016 C-127.36971448 110.57149255 -126.20689602 96.41843113 -121.20043945 83.47705078 C-120.94294922 82.78571045 -120.68545898 82.09437012 -120.42016602 81.38208008 C-115.6143495 68.81224487 -109.08312108 57.89353272 -100.95043945 47.22705078 C-100.23243164 46.26927734 -99.51442383 45.31150391 -98.7746582 44.32470703 C-98.17266602 43.63248047 -97.57067383 42.94025391 -96.95043945 42.22705078 C-96.29043945 42.22705078 -95.63043945 42.22705078 -94.95043945 42.22705078 C-94.61592773 41.39560547 -94.61592773 41.39560547 -94.2746582 40.54736328 C-83.55383837 21.76220995 -54.10137039 9.94369433 -34.8605957 4.32470703 C-23.30578552 1.27277951 -11.93482392 -0.07647953 0 0 Z " fill="#6F389A" transform="translate(364.950439453125,389.77294921875)"/>
<path d="M0 0 C1.13566406 0.00491455 2.27132812 0.0098291 3.44140625 0.01489258 C25.56959069 0.31893683 46.64156761 5.62311995 66.5 15.3125 C67.12471191 15.61526855 67.74942383 15.91803711 68.39306641 16.22998047 C98.68894058 31.12170732 123.29127658 55.07136999 144.625 80.8125 C145.21925781 81.52019531 145.81351563 82.22789062 146.42578125 82.95703125 C156.09749516 94.63567917 156.09749516 94.63567917 156.98046875 100.5078125 C155.22467908 110.75705626 144.65729776 120.56529059 138.16552734 128.32226562 C136.60890042 130.18236862 135.06384178 132.0515491 133.51953125 133.921875 C122.19024635 147.51854503 109.8844298 159.95412548 95.5 170.3125 C94.6032959 170.95977051 94.6032959 170.95977051 93.68847656 171.62011719 C84.43194733 178.2192696 74.79983044 183.53062499 64.5 188.3125 C63.38367188 188.84617187 62.26734375 189.37984375 61.1171875 189.9296875 C46.21816948 196.72758461 30.11887142 201.39574826 13.69921875 201.55078125 C12.86397171 201.558853 12.02872467 201.56692474 11.16816711 201.57524109 C9.40241525 201.58901444 7.63663752 201.59976648 5.87084961 201.60766602 C4.10156194 201.61909531 2.33230622 201.63940042 0.56323242 201.66918945 C-15.38678712 201.93684235 -30.185986 199.87491358 -45.125 194.0625 C-45.90657471 193.7644043 -46.68814941 193.46630859 -47.4934082 193.15917969 C-79.5781253 180.63355586 -106.61480242 157.47488127 -127.5 130.3125 C-128.48002797 129.09519853 -129.46335403 127.88054801 -130.44921875 126.66796875 C-133.5020006 122.91055376 -136.51057253 119.1204357 -139.5 115.3125 C-140.26570313 114.34441406 -141.03140625 113.37632812 -141.8203125 112.37890625 C-142.45710938 111.53199219 -143.09390625 110.68507813 -143.75 109.8125 C-144.29140625 109.1009375 -144.8328125 108.389375 -145.390625 107.65625 C-146.96643128 104.32708179 -146.9049834 101.95735061 -146.5 98.3125 C-145.0234375 95.3828125 -145.0234375 95.3828125 -142.875 92.4375 C-142.47966064 91.89287109 -142.08432129 91.34824219 -141.67700195 90.78710938 C-132.4505554 78.28732558 -122.24871458 66.51844456 -111.5 55.3125 C-110.64792969 54.41917969 -109.79585938 53.52585937 -108.91796875 52.60546875 C-103.14125858 46.68320367 -97.03720204 41.37819731 -90.5 36.3125 C-89.95778809 35.88855957 -89.41557617 35.46461914 -88.85693359 35.02783203 C-63.37681632 15.23246417 -32.86821418 -0.17016107 0 0 Z " fill="#E5E6E6" transform="translate(606.5,419.6875)"/>
<path d="M0 0 C9.65506811 8.27978225 17.82988595 20.79032261 19.125 33.6875 C20.19074738 50.89846065 17.94643833 66.96012606 6.23339844 80.44262695 C-5.55353348 93.3616714 -20.0650293 102.81212849 -37.90332031 103.79980469 C-57.2125791 104.65404697 -73.59415597 99.98017184 -88.4140625 87.05078125 C-100.29719673 75.63919997 -107.59915831 60.96493437 -108.25 44.4375 C-107.9186094 26.64596706 -98.25046824 10.5830129 -85.75 -1.5 C-60.78449132 -22.72712786 -24.77870187 -19.15948806 0 0 Z " fill="#272727" transform="translate(654.875,477.3125)"/>
<path d="M0 0 C5.37812566 4.46538893 10.25533197 9.24143862 15.125 14.25 C21.97843615 21.2178734 29.02143484 27.35256344 37 33 C36.01 33.33 35.02 33.66 34 34 C32.42529297 33.04711914 32.42529297 33.04711914 30.7421875 31.53515625 C30.12085938 30.98625732 29.49953125 30.4373584 28.859375 29.87182617 C28.20453125 29.27474854 27.5496875 28.6776709 26.875 28.0625 C26.20210937 27.46219971 25.52921875 26.86189941 24.8359375 26.2434082 C23.49355248 25.04478101 22.15461123 23.84228459 20.81933594 22.63574219 C18.57565214 20.61847414 16.28572784 18.65686412 14 16.6875 C10.54202951 13.60794892 7.48419586 10.30605932 4.5078125 6.76171875 C3.02757966 4.97009861 3.02757966 4.97009861 1.3046875 3.39453125 C0 2 0 2 0 0 Z " fill="#1F1E1F" transform="translate(487,560)"/>
<path d="M0 0 C0.33 0 0.66 0 1 0 C1 13.53 1 27.06 1 41 C-1.48694958 37.26957563 -1.38356574 34.23267095 -1.484375 29.90234375 C-1.5084845 29.11227432 -1.53259399 28.3222049 -1.55743408 27.50819397 C-1.60568909 25.83982144 -1.64908979 24.17130244 -1.68798828 22.50268555 C-1.74986235 19.94319399 -1.83289625 17.38498545 -1.91796875 14.82617188 C-1.96221294 13.20576349 -2.00522382 11.58532086 -2.046875 9.96484375 C-2.07279724 9.19712143 -2.09871948 8.42939911 -2.12542725 7.63841248 C-2.16169218 5.7588265 -2.09000082 3.87778019 -2 2 C-1.34 1.34 -0.68 0.68 0 0 Z " fill="#6B428B" transform="translate(418,496)"/>
<path d="M0 0 C1.35862973 3.90480249 0.89469712 7.7101776 0.5625 11.75 C0.51029297 12.44738281 0.45808594 13.14476562 0.40429688 13.86328125 C0.27525928 15.57596203 0.13840386 17.28805066 0 19 C-2.38081145 15.42878282 -2.26906871 13.73325367 -2.25 9.5 C-2.25773438 7.78296875 -2.25773438 7.78296875 -2.265625 6.03125 C-2 3 -2 3 0 0 Z " fill="#2F2D2E" transform="translate(549,512)"/>
<path d="M0 0 C0.33 0.66 0.66 1.32 1 2 C-1.62275173 2.55561711 -4.24707977 3.09492378 -6.875 3.625 C-7.62136719 3.78484375 -8.36773438 3.9446875 -9.13671875 4.109375 C-11.0758447 4.49370627 -13.03835574 4.75531287 -15 5 C-15.66 4.34 -16.32 3.68 -17 3 C-5.47835991 -0.44419134 -5.47835991 -0.44419134 0 0 Z " fill="#DADADB" transform="translate(589,422)"/>
<path d="M0 0 C4.95 0 9.9 0 15 0 C15 0.66 15 1.32 15 2 C15.66 2 16.32 2 17 2 C17 2.66 17 3.32 17 4 C9.125 3.125 9.125 3.125 8 2 C6.65252916 1.76924918 5.29622435 1.58846937 3.9375 1.4375 C2.638125 1.293125 1.33875 1.14875 0 1 C0 0.67 0 0.34 0 0 Z " fill="#693B8C" transform="translate(675,341)"/>
<path d="M0 0 C1.83836919 3.67673838 2.93651813 7.04992447 4 11 C3.01 11 2.02 11 1 11 C0.67 7.37 0.34 3.74 0 0 Z " fill="#2C2532" transform="translate(243,560)"/>
<path d="M0 0 C0 0.66 0 1.32 0 2 C-1.32 2.33 -2.64 2.66 -4 3 C-4 3.66 -4 4.32 -4 5 C-5.98 5 -7.96 5 -10 5 C-3.63636364 0 -3.63636364 0 0 0 Z " fill="#DDDDDD" transform="translate(554,433)"/>
<path d="M0 0 C0.99 0.33 1.98 0.66 3 1 C0.03 3.64 -2.94 6.28 -6 9 C-6 6 -6 6 -4.6875 4.39453125 C-4.130625 3.87246094 -3.57375 3.35039062 -3 2.8125 C-2.443125 2.28269531 -1.88625 1.75289063 -1.3125 1.20703125 C-0.6628125 0.60955078 -0.6628125 0.60955078 0 0 Z " fill="#202320" transform="translate(474,393)"/>
<path d="M0 0 C0.33 0 0.66 0 1 0 C1.39222105 1.41199578 1.76311059 2.82992764 2.125 4.25 C2.33382812 5.03890625 2.54265625 5.8278125 2.7578125 6.640625 C3 9 3 9 1 13 C0.67 8.71 0.34 4.42 0 0 Z " fill="#6B3D8D" transform="translate(192,464)"/>
<path d="M0 0 C1.85776765 3.13498292 2.20140476 5.37471432 2 9 C1.34 9 0.68 9 0 9 C-0.84454356 5.62182575 -1.10844919 3.32534757 0 0 Z " fill="#382941" transform="translate(238,537)"/>
<path d="M0 0 C1.17539996 0.92652701 2.34010577 1.86663387 3.5 2.8125 C4.1496875 3.33457031 4.799375 3.85664063 5.46875 4.39453125 C7 6 7 6 7 9 C3.99234114 6.15063897 1.72154788 3.76488042 0 0 Z " fill="#EDEEEE" transform="translate(736,485)"/>
</svg>
